<?xml version="1.0" encoding="UTF-8" standalone="no"?>
<!DOCTYPE svg PUBLIC "-//W3C//DTD SVG 1.1//EN"
 "http://www.w3.org/Graphics/SVG/1.1/DTD/svg11.dtd">
<!-- Generated by graphviz version 2.36.0 (20140111.2315)
 -->
<!-- Title: G Pages: 1 -->
<svg width="482pt" height="220pt"
 viewBox="0.00 0.00 482.00 220.00" xmlns="http://www.w3.org/2000/svg" xmlns:xlink="http://www.w3.org/1999/xlink">
<g id="graph0" class="graph" transform="scale(1 1) rotate(0) translate(4 216)">
<title>G</title>
<polygon fill="white" stroke="none" points="-4,4 -4,-216 478,-216 478,4 -4,4"/>
<g id="clust1" class="cluster"><title>cluster_impar</title>
<polygon fill="none" stroke="black" points="282,-8 282,-132 466,-132 466,-8 282,-8"/>
</g>
<g id="clust2" class="cluster"><title>cluster_main</title>
<polygon fill="none" stroke="black" points="8,-8 8,-60 164,-60 164,-8 8,-8"/>
</g>
<g id="clust3" class="cluster"><title>cluster_par</title>
<polygon fill="none" stroke="black" points="30,-80 30,-204 274,-204 274,-80 30,-80"/>
</g>
<!-- 2162121 -->
<g id="node1" class="node"><title>2162121</title>
<ellipse fill="none" stroke="black" cx="86" cy="-34" rx="69.3156" ry="18"/>
<text text-anchor="middle" x="86" y="-30.3" font-family="Times,serif" font-size="14.00">escreva (par (5))</text>
</g>
<!-- 49414 -->
<g id="node6" class="node"><title>49414</title>
<polygon fill="none" stroke="black" points="147,-196 105.076,-178 147,-160 188.924,-178 147,-196"/>
<text text-anchor="middle" x="147" y="-174.3" font-family="Times,serif" font-size="14.00">n = 0</text>
</g>
<!-- 2162121&#45;&gt;49414 -->
<g id="edge1" class="edge"><title>2162121&#45;&gt;49414</title>
<path fill="none" stroke="black" d="M56.8288,-50.4439C46.0108,-57.8227 34.9382,-67.7463 29,-80 18.9214,-100.798 15.8889,-112.968 29,-132 45.6358,-156.149 77.097,-167.347 103.352,-172.536"/>
<polygon fill="black" stroke="black" points="103.033,-176.033 113.485,-174.301 104.234,-169.137 103.033,-176.033"/>
</g>
<!-- 15171522 -->
<g id="node2" class="node"><title>15171522</title>
<ellipse fill="none" stroke="black" cx="430" cy="-34" rx="27.4223" ry="18"/>
<text text-anchor="middle" x="430" y="-30.3" font-family="Times,serif" font-size="14.00">falso</text>
</g>
<!-- 718731 -->
<g id="node4" class="node"><title>718731</title>
<ellipse fill="none" stroke="black" cx="209" cy="-106" rx="56.3173" ry="18"/>
<text text-anchor="middle" x="209" y="-102.3" font-family="Times,serif" font-size="14.00">impar (n &#45; 1)</text>
</g>
<!-- 15171522&#45;&gt;718731 -->
<g id="edge2" class="edge"><title>15171522&#45;&gt;718731</title>
<path fill="none" stroke="black" d="M413.042,-48.2911C406.744,-52.6352 399.34,-57.0871 392,-60 344.187,-78.9746 327.703,-66.7439 278,-80 269.594,-82.2419 260.763,-85.0665 252.333,-88.0033"/>
<polygon fill="black" stroke="black" points="250.897,-84.7999 242.669,-91.4743 253.263,-91.3879 250.897,-84.7999"/>
</g>
<!-- 517527 -->
<g id="node3" class="node"><title>517527</title>
<ellipse fill="none" stroke="black" cx="86" cy="-106" rx="48.1437" ry="18"/>
<text text-anchor="middle" x="86" y="-102.3" font-family="Times,serif" font-size="14.00">verdadeiro</text>
</g>
<!-- 517527&#45;&gt;2162121 -->
<g id="edge3" class="edge"><title>517527&#45;&gt;2162121</title>
<path fill="none" stroke="black" d="M86,-87.6966C86,-79.9827 86,-70.7125 86,-62.1124"/>
<polygon fill="black" stroke="black" points="89.5001,-62.1043 86,-52.1043 82.5001,-62.1044 89.5001,-62.1043"/>
</g>
<!-- 16211632 -->
<g id="node5" class="node"><title>16211632</title>
<ellipse fill="none" stroke="black" cx="337" cy="-34" rx="46.1964" ry="18"/>
<text text-anchor="middle" x="337" y="-30.3" font-family="Times,serif" font-size="14.00">par (n &#45; 1)</text>
</g>
<!-- 517527&#45;&gt;16211632 -->
<g id="edge4" class="edge"><title>517527&#45;&gt;16211632</title>
<path fill="none" stroke="black" d="M114.299,-91.3529C123.332,-87.3326 133.463,-83.1672 143,-80 190.391,-64.2621 246.057,-51.959 285.576,-44.2242"/>
<polygon fill="black" stroke="black" points="286.357,-47.6382 295.514,-42.3088 285.032,-40.7647 286.357,-47.6382"/>
</g>
<!-- 718731&#45;&gt;2162121 -->
<g id="edge5" class="edge"><title>718731&#45;&gt;2162121</title>
<path fill="none" stroke="black" d="M182.613,-89.9832C165.063,-79.9954 141.776,-66.7424 122.462,-55.7506"/>
<polygon fill="black" stroke="black" points="124.045,-52.6246 113.623,-50.7203 120.583,-58.7084 124.045,-52.6246"/>
</g>
<!-- 718731&#45;&gt;16211632 -->
<g id="edge6" class="edge"><title>718731&#45;&gt;16211632</title>
<path fill="none" stroke="black" d="M231.687,-89.4647C250.25,-78.6097 276.715,-64.092 298.534,-52.775"/>
<polygon fill="black" stroke="black" points="300.265,-55.8207 307.563,-48.1408 297.069,-49.593 300.265,-55.8207"/>
</g>
<!-- 1491414 -->
<g id="node7" class="node"><title>1491414</title>
<polygon fill="none" stroke="black" points="364,-124 322.076,-106 364,-88 405.924,-106 364,-124"/>
<text text-anchor="middle" x="364" y="-102.3" font-family="Times,serif" font-size="14.00">n = 0</text>
</g>
<!-- 718731&#45;&gt;1491414 -->
<g id="edge7" class="edge"><title>718731&#45;&gt;1491414</title>
<path fill="none" stroke="black" d="M265.309,-106C280.804,-106 296.3,-106 311.796,-106"/>
<polygon fill="black" stroke="black" points="311.979,-109.5 321.979,-106 311.979,-102.5 311.979,-109.5"/>
</g>
<!-- 16211632&#45;&gt;718731 -->
<g id="edge8" class="edge"><title>16211632&#45;&gt;718731</title>
<path fill="none" stroke="black" d="M315.327,-49.941C297.206,-60.5733 271.08,-74.934 249.202,-86.3231"/>
<polygon fill="black" stroke="black" points="247.407,-83.3106 240.121,-91.0027 250.614,-89.5329 247.407,-83.3106"/>
</g>
<!-- 16211632&#45;&gt;49414 -->
<g id="edge9" class="edge"><title>16211632&#45;&gt;49414</title>
<path fill="none" stroke="black" d="M327.848,-51.7934C314.138,-76.4323 288.349,-120.686 274,-132 248.265,-152.291 212.661,-163.85 185.697,-170.158"/>
<polygon fill="black" stroke="black" points="184.842,-166.762 175.825,-172.326 186.343,-173.599 184.842,-166.762"/>
</g>
<!-- 49414&#45;&gt;517527 -->
<g id="edge10" class="edge"><title>49414&#45;&gt;517527</title>
<path fill="none" stroke="black" d="M136.094,-164.485C128.042,-155.245 116.83,-142.379 107.055,-131.161"/>
<polygon fill="black" stroke="black" points="109.465,-128.599 100.256,-123.359 104.187,-133.198 109.465,-128.599"/>
</g>
<!-- 49414&#45;&gt;718731 -->
<g id="edge11" class="edge"><title>49414&#45;&gt;718731</title>
<path fill="none" stroke="black" d="M158.084,-164.485C166.212,-155.309 177.508,-142.555 187.396,-131.392"/>
<polygon fill="black" stroke="black" points="190.271,-133.425 194.281,-123.618 185.031,-128.783 190.271,-133.425"/>
</g>
<!-- 1491414&#45;&gt;15171522 -->
<g id="edge12" class="edge"><title>1491414&#45;&gt;15171522</title>
<path fill="none" stroke="black" d="M375.496,-92.8069C384.706,-83.0387 397.875,-69.0725 408.96,-57.3149"/>
<polygon fill="black" stroke="black" points="411.568,-59.6508 415.882,-49.9738 406.475,-54.8487 411.568,-59.6508"/>
</g>
<!-- 1491414&#45;&gt;16211632 -->
<g id="edge13" class="edge"><title>1491414&#45;&gt;16211632</title>
<path fill="none" stroke="black" d="M358.274,-90.1548C355.08,-81.8743 351.006,-71.3107 347.279,-61.6488"/>
<polygon fill="black" stroke="black" points="350.437,-60.1105 343.573,-52.04 343.906,-62.6296 350.437,-60.1105"/>
</g>
</g>
</svg>
